<svg width="500" height="194" viewBox="0 0 500 194" fill="none" xmlns="http://www.w3.org/2000/svg">
<rect width="500" height="194" fill="#DDDDDD"/>
<path d="M230.038 93.6905L225.987 90.6977H225.946V83.2211H225.944L212.965 70.5195L212.958 70.526H188.159V90.716L184.078 93.8011V110.693H188.159V123.478H225.947V110.693H230.029V105L230.038 93.6905ZM195.901 106.41V98.9578H198.767C199.339 98.9578 199.859 99.0496 200.328 99.2349C200.779 99.4072 201.189 99.6703 201.533 100.008C201.87 100.343 202.134 100.744 202.309 101.187C202.492 101.642 202.583 102.14 202.583 102.681C202.583 103.226 202.492 103.726 202.309 104.184C202.135 104.627 201.871 105.028 201.533 105.363C201.188 105.699 200.778 105.961 200.328 106.133C199.859 106.317 199.339 106.41 198.767 106.41H195.901ZM203.623 102.681C203.623 102.136 203.715 101.632 203.898 101.168C204.072 100.718 204.337 100.308 204.676 99.9642C205.02 99.6197 205.431 99.3482 205.883 99.166C206.351 98.9731 206.872 98.8755 207.443 98.8755C208.016 98.8755 208.535 98.9731 209.004 99.166C209.474 99.3602 209.875 99.6266 210.209 99.9678C210.542 100.308 210.801 100.71 210.984 101.174C211.167 101.638 211.259 102.141 211.259 102.682C211.259 103.226 211.168 103.731 210.984 104.196C210.801 104.662 210.542 105.066 210.209 105.404C209.866 105.749 209.456 106.021 209.004 106.202C208.535 106.395 208.014 106.491 207.443 106.491C206.872 106.491 206.351 106.395 205.883 106.202C205.431 106.02 205.02 105.749 204.676 105.404C204.34 105.066 204.08 104.662 203.898 104.196C203.715 103.731 203.623 103.226 203.623 102.681ZM217.511 106.194C217.064 106.393 216.532 106.492 215.916 106.492C215.358 106.492 214.856 106.397 214.411 106.208C213.98 106.028 213.592 105.757 213.275 105.413C212.957 105.063 212.713 104.653 212.556 104.207C212.388 103.74 212.304 103.233 212.304 102.681C212.304 102.311 212.343 101.959 212.424 101.625C212.501 101.304 212.619 100.994 212.777 100.704C212.931 100.422 213.116 100.17 213.334 99.9436C213.552 99.7178 213.8 99.5234 214.071 99.366C214.345 99.2072 214.644 99.0855 214.966 99.0025C215.305 98.916 215.653 98.8733 216.002 98.8755C216.276 98.8755 216.534 98.8996 216.779 98.9478C217.024 98.9961 217.253 99.0625 217.465 99.1478C217.677 99.2337 217.873 99.3372 218.053 99.459C218.233 99.5807 218.394 99.7137 218.539 99.8566L218.019 100.565C217.987 100.612 217.947 100.652 217.901 100.684C217.844 100.721 217.775 100.74 217.706 100.735C217.616 100.732 217.529 100.702 217.457 100.649C217.357 100.58 217.255 100.514 217.15 100.454C217.028 100.381 216.876 100.318 216.693 100.258C216.51 100.199 216.277 100.172 215.996 100.172C215.701 100.169 215.409 100.226 215.139 100.342C214.879 100.454 214.655 100.618 214.469 100.831C214.272 101.062 214.125 101.331 214.035 101.621C213.931 101.931 213.879 102.286 213.879 102.683C213.879 103.085 213.936 103.44 214.047 103.754C214.157 104.068 214.31 104.331 214.504 104.548C214.697 104.764 214.923 104.927 215.182 105.039C215.439 105.15 215.716 105.205 216.01 105.205C216.186 105.205 216.343 105.197 216.486 105.18C216.629 105.163 216.76 105.133 216.881 105.093C217.003 105.052 217.117 104.999 217.226 104.933C217.334 104.87 217.441 104.786 217.551 104.687C217.587 104.657 217.627 104.631 217.67 104.61C217.711 104.59 217.757 104.579 217.804 104.579C217.89 104.579 217.962 104.61 218.019 104.671L218.63 105.323C218.335 105.702 217.95 106.001 217.511 106.194ZM211.139 72.3459L211.127 85.0245L224.129 85.0392V93.6999H189.978V72.3459H211.139ZM224.128 121.659H189.978V110.693H224.127V121.659H224.128Z" fill="#999999"/>
<path d="M205.799 104.525C205.992 104.741 206.227 104.906 206.504 105.02C206.803 105.139 207.122 105.198 207.444 105.193C207.793 105.193 208.105 105.135 208.382 105.02C208.651 104.911 208.892 104.741 209.085 104.525C209.278 104.309 209.427 104.047 209.529 103.737C209.632 103.427 209.684 103.075 209.684 102.681C209.684 102.29 209.632 101.94 209.529 101.631C209.437 101.34 209.286 101.071 209.085 100.84C208.892 100.623 208.651 100.452 208.382 100.342C208.105 100.227 207.793 100.169 207.444 100.169C207.122 100.164 206.803 100.223 206.504 100.342C206.234 100.451 205.992 100.622 205.799 100.84C205.597 101.07 205.446 101.34 205.354 101.631C205.251 101.94 205.2 102.29 205.2 102.681C205.2 103.075 205.251 103.427 205.354 103.737C205.457 104.047 205.605 104.309 205.799 104.525ZM200.848 103.739C200.951 103.428 201.001 103.075 201.001 102.681C201.001 102.29 200.951 101.94 200.848 101.629C200.745 101.316 200.598 101.053 200.406 100.837C200.214 100.621 199.981 100.456 199.705 100.339C199.429 100.222 199.117 100.164 198.768 100.164H197.453V105.201H198.768C199.117 105.201 199.429 105.143 199.705 105.028C199.981 104.914 200.214 104.748 200.406 104.531C200.598 104.314 200.745 104.05 200.848 103.739Z" fill="#999999"/>
<path d="M246.079 110C245.803 110 245.577 109.912 245.401 109.736C245.225 109.561 245.137 109.335 245.137 109.059V84.5882C245.137 84.3122 245.225 84.0863 245.401 83.9106C245.577 83.7349 245.803 83.6471 246.079 83.6471H255.528C258.038 83.6471 260.134 84.0486 261.815 84.8518C263.497 85.6298 264.777 86.7843 265.655 88.3153C266.559 89.8212 267.035 91.691 267.086 93.9247C267.111 95.029 267.123 95.9953 267.123 96.8235C267.123 97.6518 267.111 98.6055 267.086 99.6847C267.01 102.019 266.546 103.951 265.693 105.482C264.839 107.013 263.585 108.155 261.928 108.908C260.272 109.636 258.201 110 255.716 110H246.079ZM251.123 105.144H255.528C256.783 105.144 257.812 104.955 258.615 104.579C259.418 104.202 260.008 103.613 260.385 102.809C260.786 101.981 260.999 100.915 261.025 99.6094C261.05 98.8816 261.062 98.229 261.062 97.6518C261.087 97.0745 261.087 96.4973 261.062 95.92C261.062 95.3427 261.05 94.7027 261.025 94C260.974 92.1176 260.485 90.7373 259.556 89.8588C258.653 88.9553 257.247 88.5035 255.34 88.5035H251.123V105.144ZM282.295 110.376C280.011 110.376 278.04 110 276.384 109.247C274.727 108.494 273.435 107.365 272.506 105.859C271.578 104.328 271.076 102.408 271 100.099C270.975 99.0196 270.963 97.9529 270.963 96.8988C270.963 95.8196 270.975 94.7278 271 93.6235C271.076 91.3647 271.578 89.4698 272.506 87.9388C273.46 86.3827 274.765 85.2157 276.422 84.4376C278.103 83.6596 280.061 83.2706 282.295 83.2706C284.503 83.2706 286.436 83.6596 288.092 84.4376C289.774 85.2157 291.091 86.3827 292.045 87.9388C292.999 89.4698 293.501 91.3647 293.551 93.6235C293.601 94.7278 293.626 95.8196 293.626 96.8988C293.626 97.9529 293.601 99.0196 293.551 100.099C293.476 102.408 292.974 104.328 292.045 105.859C291.116 107.365 289.824 108.494 288.167 109.247C286.511 110 284.553 110.376 282.295 110.376ZM282.295 105.52C283.75 105.52 284.942 105.081 285.871 104.202C286.825 103.299 287.327 101.868 287.377 99.9106C287.427 98.8063 287.452 97.7773 287.452 96.8235C287.452 95.8447 287.427 94.8157 287.377 93.7365C287.352 92.4314 287.113 91.3647 286.662 90.5365C286.21 89.7082 285.607 89.1059 284.855 88.7294C284.127 88.3278 283.273 88.1271 282.295 88.1271C281.316 88.1271 280.45 88.3278 279.697 88.7294C278.944 89.1059 278.342 89.7082 277.89 90.5365C277.463 91.3647 277.225 92.4314 277.175 93.7365C277.149 94.8157 277.137 95.8447 277.137 96.8235C277.137 97.7773 277.149 98.8063 277.175 99.9106C277.25 101.868 277.752 103.299 278.68 104.202C279.609 105.081 280.814 105.52 282.295 105.52ZM308.765 110.376C306.406 110.376 304.398 109.987 302.742 109.209C301.11 108.406 299.843 107.252 298.939 105.746C298.036 104.215 297.534 102.358 297.433 100.174C297.408 99.1451 297.396 98.0408 297.396 96.8612C297.396 95.6816 297.408 94.5522 297.433 93.4729C297.534 91.3145 298.036 89.4824 298.939 87.9765C299.868 86.4455 301.16 85.2784 302.817 84.4753C304.473 83.6722 306.456 83.2706 308.765 83.2706C310.447 83.2706 311.978 83.4839 313.358 83.9106C314.738 84.3373 315.931 84.9522 316.935 85.7553C317.938 86.5584 318.716 87.4996 319.269 88.5788C319.821 89.658 320.122 90.8627 320.172 92.1929C320.172 92.4188 320.084 92.6071 319.909 92.7576C319.758 92.9082 319.57 92.9835 319.344 92.9835H315.052C314.751 92.9835 314.513 92.9082 314.337 92.7576C314.161 92.6071 314.023 92.3561 313.923 92.0047C313.546 90.5239 312.919 89.5074 312.04 88.9553C311.162 88.4031 310.07 88.1271 308.765 88.1271C307.209 88.1271 305.979 88.5537 305.076 89.4071C304.172 90.2604 303.683 91.6784 303.607 93.6612C303.532 95.7192 303.532 97.8274 303.607 99.9859C303.683 101.969 304.172 103.387 305.076 104.24C305.979 105.093 307.209 105.52 308.765 105.52C310.07 105.52 311.162 105.244 312.04 104.692C312.944 104.115 313.571 103.098 313.923 101.642C314.023 101.266 314.161 101.015 314.337 100.889C314.513 100.739 314.751 100.664 315.052 100.664H319.344C319.57 100.664 319.758 100.739 319.909 100.889C320.084 101.04 320.172 101.228 320.172 101.454C320.122 102.784 319.821 103.989 319.269 105.068C318.716 106.147 317.938 107.089 316.935 107.892C315.931 108.695 314.738 109.31 313.358 109.736C311.978 110.163 310.447 110.376 308.765 110.376Z" fill="#999999"/>
</svg>
