<svg width="500" height="194" viewBox="0 0 500 194" fill="none" xmlns="http://www.w3.org/2000/svg">
<rect width="500" height="194" fill="#DDDDDD"/>
<path d="M232.32 93.7023L228.283 90.7182H228.242V83.2653H228.239L215.3 70.6035L215.294 70.61H190.572V90.737L186.504 93.8112V110.652H190.572V123.397H228.242V110.652H232.31V105.394L232.32 93.7023ZM199.808 106.381V98.9518H202.317C202.825 98.9518 203.264 99.0123 203.635 99.1312C204.006 99.2512 204.31 99.417 204.549 99.6312C204.788 99.8441 204.964 100.098 205.079 100.392C205.193 100.685 205.25 101.004 205.25 101.349C205.25 101.714 205.191 102.048 205.071 102.353C204.954 102.653 204.768 102.921 204.528 103.135C204.286 103.354 203.98 103.524 203.612 103.644C203.243 103.766 202.812 103.827 202.316 103.827H201.343V106.382L199.808 106.381ZM206.569 106.381V98.9518H209.425C209.995 98.9518 210.514 99.0435 210.982 99.2288C211.449 99.4129 211.85 99.67 212.182 100C212.514 100.33 212.773 100.721 212.955 101.175C213.138 101.629 213.229 102.125 213.229 102.665C213.229 103.207 213.138 103.706 212.955 104.162C212.781 104.603 212.518 105.003 212.182 105.337C211.838 105.672 211.43 105.933 210.982 106.105C210.514 106.289 209.995 106.382 209.425 106.382L206.569 106.381ZM219.432 100.155H216.247V102.208H218.92V103.416H216.247V106.381H214.701V98.9518H219.432V100.155ZM213.48 72.4241L213.467 85.0629L226.427 85.0776V93.7118H192.386V72.4241H213.48ZM226.427 121.582H192.386V110.652H226.427V121.582Z" fill="#999999"/>
<path d="M211.498 103.719C211.602 103.409 211.653 103.057 211.653 102.665C211.653 102.276 211.602 101.926 211.498 101.615C211.407 101.325 211.258 101.057 211.058 100.827C210.866 100.611 210.627 100.441 210.36 100.33C210.085 100.213 209.774 100.156 209.426 100.156H208.115V105.178H209.426C209.774 105.178 210.086 105.12 210.36 105.006C210.628 104.897 210.867 104.727 211.058 104.509C211.25 104.293 211.396 104.03 211.498 103.719ZM203.374 102.301C203.597 102.069 203.709 101.752 203.709 101.349C203.709 101.165 203.681 100.997 203.625 100.846C203.571 100.698 203.483 100.564 203.368 100.456C203.244 100.343 203.097 100.258 202.936 100.208C202.736 100.146 202.526 100.117 202.317 100.122H201.344V102.65H202.317C202.798 102.65 203.15 102.533 203.374 102.301Z" fill="#999999"/>
<path d="M248.434 110.059C248.158 110.059 247.932 109.971 247.756 109.795C247.581 109.619 247.493 109.393 247.493 109.117V84.6468C247.493 84.3707 247.581 84.1449 247.756 83.9692C247.932 83.7935 248.158 83.7056 248.434 83.7056H258.712C260.745 83.7056 262.502 84.0194 263.982 84.6468C265.488 85.2743 266.655 86.228 267.484 87.508C268.337 88.7629 268.764 90.3315 268.764 92.2139C268.764 94.1213 268.337 95.7025 267.484 96.9574C266.655 98.1872 265.488 99.1033 263.982 99.7057C262.502 100.308 260.745 100.609 258.712 100.609H253.667V109.117C253.667 109.393 253.579 109.619 253.404 109.795C253.228 109.971 253.002 110.059 252.726 110.059H248.434ZM253.554 95.9409H258.524C259.804 95.9409 260.795 95.6272 261.498 94.9998C262.225 94.3723 262.589 93.4311 262.589 92.1762C262.589 91.0719 262.263 90.1684 261.611 89.4656C260.983 88.7629 259.954 88.4115 258.524 88.4115H253.554V95.9409ZM273.544 110.059C273.268 110.059 273.042 109.971 272.867 109.795C272.691 109.619 272.603 109.393 272.603 109.117V84.6468C272.603 84.3707 272.691 84.1449 272.867 83.9692C273.042 83.7935 273.268 83.7056 273.544 83.7056H282.994C285.504 83.7056 287.599 84.1072 289.281 84.9104C290.962 85.6884 292.242 86.8429 293.121 88.3739C294.024 89.8798 294.501 91.7496 294.551 93.9833C294.577 95.0876 294.589 96.0539 294.589 96.8821C294.589 97.7104 294.577 98.6641 294.551 99.7433C294.476 102.077 294.012 104.01 293.159 105.541C292.305 107.072 291.05 108.214 289.394 108.967C287.737 109.695 285.667 110.059 283.182 110.059H273.544ZM278.589 105.202H282.994C284.249 105.202 285.278 105.014 286.081 104.637C286.884 104.261 287.474 103.671 287.85 102.868C288.252 102.04 288.465 100.973 288.49 99.668C288.515 98.9402 288.528 98.2876 288.528 97.7104C288.553 97.1331 288.553 96.5558 288.528 95.9786C288.528 95.4013 288.515 94.7613 288.49 94.0586C288.44 92.1762 287.951 90.7958 287.022 89.9174C286.119 89.0139 284.713 88.5621 282.806 88.5621H278.589V105.202ZM300.236 110.059C299.959 110.059 299.734 109.971 299.558 109.795C299.382 109.619 299.294 109.393 299.294 109.117V84.6468C299.294 84.3707 299.382 84.1449 299.558 83.9692C299.734 83.7935 299.959 83.7056 300.236 83.7056H317.026C317.302 83.7056 317.528 83.7935 317.704 83.9692C317.879 84.1449 317.967 84.3707 317.967 84.6468V87.8468C317.967 88.1229 317.879 88.3488 317.704 88.5245C317.528 88.7002 317.302 88.788 317.026 88.788H305.167V95.1504H316.273C316.549 95.1504 316.775 95.2382 316.951 95.4139C317.127 95.5896 317.214 95.8155 317.214 96.0915V99.2915C317.214 99.5425 317.127 99.7558 316.951 99.9315C316.775 100.107 316.549 100.195 316.273 100.195H305.167V109.117C305.167 109.393 305.079 109.619 304.904 109.795C304.728 109.971 304.502 110.059 304.226 110.059H300.236Z" fill="#999999"/>
</svg>
