<svg width="500" height="194" viewBox="0 0 500 194" fill="none" xmlns="http://www.w3.org/2000/svg">
<rect width="500" height="194" fill="#DDDDDD"/>
<path d="M232.39 93.6905L228.34 90.6977H228.299V83.2211H228.295L215.316 70.5195L215.31 70.526H190.511V90.7154L186.43 93.7993V110.693H190.511V123.478H228.299V110.693H232.38V105.42L232.39 93.6905ZM200.199 106.41V98.9578H202.716C203.226 98.9578 203.667 99.0178 204.039 99.1372C204.41 99.2578 204.715 99.4243 204.956 99.6384C205.195 99.8519 205.372 100.108 205.487 100.402C205.601 100.697 205.659 101.017 205.659 101.362C205.659 101.729 205.599 102.064 205.479 102.369C205.362 102.67 205.176 102.939 204.934 103.155C204.692 103.374 204.384 103.544 204.015 103.666C203.645 103.788 203.212 103.849 202.715 103.849H201.74V106.41H200.199ZM206.981 106.41V98.9578H209.498C210.008 98.9578 210.449 99.0178 210.82 99.1372C211.192 99.2578 211.497 99.4243 211.738 99.6384C211.977 99.8531 212.155 100.108 212.269 100.402C212.383 100.697 212.441 101.017 212.441 101.362C212.441 101.729 212.38 102.064 212.26 102.369C212.144 102.67 211.957 102.94 211.716 103.155C211.473 103.374 211.166 103.544 210.796 103.666C210.426 103.788 209.994 103.849 209.497 103.849H208.522V106.41H206.981ZM219.038 100.201H216.86V106.41H215.314V100.201H213.137V98.9578H219.038V100.201ZM213.491 72.3459L213.479 85.0245L226.48 85.0392V93.6999H192.331V72.3459H213.491ZM226.48 121.659H192.331V110.693H226.478V121.659H226.48Z" fill="#999999"/>
<path d="M210.557 102.317C210.781 102.085 210.892 101.766 210.892 101.362C210.892 101.177 210.865 101.008 210.808 100.856C210.753 100.708 210.665 100.574 210.55 100.466C210.436 100.358 210.292 100.275 210.117 100.216C209.942 100.158 209.736 100.129 209.495 100.129H208.52V102.667H209.496C209.98 102.667 210.332 102.551 210.557 102.317ZM203.775 102.317C203.999 102.085 204.111 101.766 204.111 101.362C204.111 101.177 204.083 101.008 204.026 100.856C203.972 100.708 203.884 100.574 203.769 100.466C203.645 100.352 203.496 100.267 203.335 100.216C203.134 100.154 202.924 100.125 202.714 100.129H201.738V102.667H202.714C203.197 102.667 203.551 102.551 203.775 102.317Z" fill="#999999"/>
<path d="M248.43 110.059C248.154 110.059 247.928 109.971 247.753 109.795C247.577 109.619 247.489 109.393 247.489 109.117V84.6468C247.489 84.3707 247.577 84.1449 247.753 83.9692C247.928 83.7935 248.154 83.7056 248.43 83.7056H258.708C260.741 83.7056 262.498 84.0194 263.978 84.6468C265.484 85.2743 266.651 86.228 267.48 87.508C268.333 88.7629 268.76 90.3315 268.76 92.2139C268.76 94.1213 268.333 95.7025 267.48 96.9574C266.651 98.1872 265.484 99.1033 263.978 99.7057C262.498 100.308 260.741 100.609 258.708 100.609H253.663V109.117C253.663 109.393 253.575 109.619 253.4 109.795C253.224 109.971 252.998 110.059 252.722 110.059H248.43ZM253.55 95.9409H258.52C259.8 95.9409 260.791 95.6272 261.494 94.9998C262.222 94.3723 262.585 93.4311 262.585 92.1762C262.585 91.0719 262.259 90.1684 261.607 89.4656C260.979 88.7629 259.95 88.4115 258.52 88.4115H253.55V95.9409ZM273.54 110.059C273.264 110.059 273.039 109.971 272.863 109.795C272.687 109.619 272.599 109.393 272.599 109.117V84.6468C272.599 84.3707 272.687 84.1449 272.863 83.9692C273.039 83.7935 273.264 83.7056 273.54 83.7056H283.818C285.851 83.7056 287.608 84.0194 289.089 84.6468C290.595 85.2743 291.762 86.228 292.59 87.508C293.443 88.7629 293.87 90.3315 293.87 92.2139C293.87 94.1213 293.443 95.7025 292.59 96.9574C291.762 98.1872 290.595 99.1033 289.089 99.7057C287.608 100.308 285.851 100.609 283.818 100.609H278.773V109.117C278.773 109.393 278.686 109.619 278.51 109.795C278.334 109.971 278.108 110.059 277.832 110.059H273.54ZM278.66 95.9409H283.63C284.91 95.9409 285.901 95.6272 286.604 94.9998C287.332 94.3723 287.696 93.4311 287.696 92.1762C287.696 91.0719 287.369 90.1684 286.717 89.4656C286.089 88.7629 285.06 88.4115 283.63 88.4115H278.66V95.9409ZM304.448 110.059C304.172 110.059 303.946 109.971 303.771 109.795C303.595 109.619 303.507 109.393 303.507 109.117V88.9386H296.655C296.404 88.9386 296.191 88.8507 296.015 88.6751C295.84 88.4994 295.752 88.286 295.752 88.0351V84.6468C295.752 84.3707 295.84 84.1449 296.015 83.9692C296.191 83.7935 296.404 83.7056 296.655 83.7056H316.383C316.659 83.7056 316.884 83.7935 317.06 83.9692C317.236 84.1449 317.324 84.3707 317.324 84.6468V88.0351C317.324 88.286 317.236 88.4994 317.06 88.6751C316.884 88.8507 316.659 88.9386 316.383 88.9386H309.568V109.117C309.568 109.393 309.481 109.619 309.305 109.795C309.129 109.971 308.903 110.059 308.627 110.059H304.448Z" fill="#999999"/>
</svg>
