<svg width="500" height="194" viewBox="0 0 500 194" fill="none" xmlns="http://www.w3.org/2000/svg">
<rect width="500" height="194" fill="#DDDDDD"/>
<path d="M234.005 93.696L229.96 90.7074H229.919V83.242H229.917L216.954 70.5586L216.948 70.5651H192.185V90.7256L188.109 93.8043V110.674H192.185V123.441H229.918V110.674H233.994V105.391L234.005 93.696ZM201.397 100.197V98.9575H207.289V100.197H205.115V106.398H203.571V100.197H201.397ZM207.851 98.9563H209.389C209.492 98.9563 209.566 98.9698 209.615 98.9963C209.668 99.0296 209.712 99.0754 209.743 99.1298L211.338 101.761C211.355 101.721 211.375 101.678 211.397 101.636C211.419 101.593 211.444 101.55 211.472 101.504L212.908 99.1551C212.948 99.0875 212.994 99.0369 213.043 99.0045C213.091 98.9722 213.153 98.9563 213.225 98.9563H214.697L212.333 102.504L214.758 106.397H213.22C213.13 106.401 213.042 106.374 212.971 106.32C212.909 106.27 212.858 106.209 212.819 106.14L211.203 103.401C211.177 103.474 211.144 103.545 211.106 103.612L209.577 106.141C209.533 106.206 209.48 106.265 209.421 106.318C209.358 106.372 209.276 106.4 209.193 106.397H207.758L210.193 102.571L207.851 98.9563ZM221.136 100.197H218.962V106.398H217.418V100.197H215.244V98.9575H221.137L221.136 100.197ZM215.132 72.3826L215.12 85.0424L228.101 85.0577V93.7054H194.003V72.3826H215.132ZM228.102 121.624H194.003V110.674H228.102V121.624Z" fill="#999999"/>
<path d="M255.876 110C255.6 110 255.374 109.912 255.199 109.736C255.023 109.561 254.935 109.335 254.935 109.059V88.88H248.083C247.832 88.88 247.619 88.7922 247.443 88.6165C247.268 88.4408 247.18 88.2274 247.18 87.9765V84.5882C247.18 84.3122 247.268 84.0863 247.443 83.9106C247.619 83.7349 247.832 83.6471 248.083 83.6471H267.81C268.086 83.6471 268.312 83.7349 268.488 83.9106C268.664 84.0863 268.752 84.3122 268.752 84.5882V87.9765C268.752 88.2274 268.664 88.4408 268.488 88.6165C268.312 88.7922 268.086 88.88 267.81 88.88H260.996V109.059C260.996 109.335 260.908 109.561 260.733 109.736C260.557 109.912 260.331 110 260.055 110H255.876ZM270.942 110C270.716 110 270.528 109.925 270.377 109.774C270.227 109.598 270.152 109.41 270.152 109.209C270.152 109.134 270.164 109.059 270.189 108.984C270.214 108.908 270.239 108.833 270.265 108.758L278.585 96.56L270.829 84.8894C270.754 84.7388 270.716 84.5882 270.716 84.4376C270.716 84.2369 270.792 84.0612 270.942 83.9106C271.093 83.7349 271.281 83.6471 271.507 83.6471H276.137C276.464 83.6471 276.715 83.7349 276.89 83.9106C277.091 84.0863 277.242 84.2494 277.342 84.4L282.387 91.8918L287.469 84.4C287.57 84.2494 287.72 84.0863 287.921 83.9106C288.122 83.7349 288.385 83.6471 288.712 83.6471H293.116C293.317 83.6471 293.493 83.7349 293.643 83.9106C293.819 84.0612 293.907 84.2369 293.907 84.4376C293.907 84.6133 293.857 84.7639 293.756 84.8894L286.001 96.5224L294.359 108.758C294.409 108.833 294.434 108.908 294.434 108.984C294.459 109.059 294.472 109.134 294.472 109.209C294.472 109.41 294.396 109.598 294.246 109.774C294.095 109.925 293.907 110 293.681 110H288.9C288.574 110 288.31 109.912 288.109 109.736C287.934 109.561 287.795 109.41 287.695 109.285L282.199 101.379L276.74 109.285C276.665 109.41 276.526 109.561 276.326 109.736C276.15 109.912 275.886 110 275.535 110H270.942ZM304.553 110C304.277 110 304.051 109.912 303.875 109.736C303.699 109.561 303.612 109.335 303.612 109.059V88.88H296.76C296.509 88.88 296.295 88.7922 296.12 88.6165C295.944 88.4408 295.856 88.2274 295.856 87.9765V84.5882C295.856 84.3122 295.944 84.0863 296.12 83.9106C296.295 83.7349 296.509 83.6471 296.76 83.6471H316.487C316.763 83.6471 316.989 83.7349 317.165 83.9106C317.34 84.0863 317.428 84.3122 317.428 84.5882V87.9765C317.428 88.2274 317.34 88.4408 317.165 88.6165C316.989 88.7922 316.763 88.88 316.487 88.88H309.673V109.059C309.673 109.335 309.585 109.561 309.409 109.736C309.234 109.912 309.008 110 308.732 110H304.553Z" fill="#999999"/>
</svg>
