<svg width="36" height="36" viewBox="0 0 36 36" fill="none" xmlns="http://www.w3.org/2000/svg">
<path d="M12.8886 28.8066L12.8887 28.8065L28.7867 18.208C28.8138 18.1899 28.8374 18.1663 28.8559 18.1386L28.8559 18.1385C28.9324 18.0239 28.9015 17.8686 28.7867 17.7919L12.8886 28.8066ZM12.8886 28.8066C12.7739 28.8831 12.6187 28.8522 12.5421 28.7375C12.5146 28.6962 12.5 28.6479 12.5 28.5986V7.40137C12.5 7.26329 12.6119 7.15137 12.75 7.15137C12.7994 7.15137 12.8476 7.16598 12.8887 7.19335C12.8887 7.19335 12.8887 7.19335 12.8887 7.19336L28.7866 17.7918L12.8886 28.8066Z" fill="white" stroke="black"/>
</svg>
