<svg width="500" height="194" viewBox="0 0 500 194" fill="none" xmlns="http://www.w3.org/2000/svg">
<rect width="500" height="194" fill="#DDDDDD"/>
<path d="M232.384 93.6945L228.336 90.7035H228.295V83.2334H228.293L215.323 70.543L215.318 70.5494H190.54V90.7212L186.438 93.6939L186.462 93.8028V110.682H190.54V123.456H228.295V110.682H232.373V105.414L232.384 93.6945ZM200.245 98.8748H201.784C201.887 98.8748 201.962 98.8877 202.01 98.9148C202.063 98.9478 202.108 98.9942 202.138 99.0495L203.734 101.682C203.772 101.593 203.816 101.507 203.868 101.425L205.305 99.0748C205.338 99.0148 205.385 98.963 205.44 98.923C205.495 98.8892 205.559 98.8724 205.623 98.8748H207.095L204.73 102.426L207.157 106.32H205.617C205.528 106.324 205.439 106.297 205.368 106.243C205.306 106.193 205.255 106.132 205.216 106.063L203.6 103.323C203.573 103.396 203.541 103.467 203.502 103.535L201.973 106.064C201.928 106.129 201.876 106.189 201.817 106.241C201.754 106.296 201.672 106.324 201.588 106.321H200.152L202.589 102.493L200.245 98.8748ZM212.685 105.068V106.32H208.267V98.8748H209.807V105.068H212.685ZM218.325 104.916C218.207 105.212 218.037 105.47 217.815 105.69C217.579 105.919 217.299 106.096 216.992 106.212C216.664 106.338 216.294 106.401 215.879 106.401C215.644 106.401 215.408 106.377 215.174 106.329C214.718 106.237 214.281 106.066 213.884 105.822C213.701 105.709 213.533 105.575 213.382 105.421L213.834 104.693C213.872 104.637 213.923 104.59 213.983 104.558C214.042 104.522 214.11 104.503 214.179 104.503C214.271 104.503 214.368 104.537 214.471 104.606C214.574 104.674 214.691 104.75 214.826 104.832C214.959 104.914 215.113 104.99 215.29 105.058C215.466 105.127 215.677 105.161 215.923 105.161C216.282 105.161 216.56 105.079 216.757 104.914C216.953 104.751 217.052 104.506 217.052 104.181C217.052 103.993 217.004 103.841 216.906 103.725C216.8 103.602 216.67 103.503 216.524 103.433C216.351 103.347 216.171 103.279 215.985 103.229C215.777 103.171 215.57 103.109 215.365 103.042C215.152 102.974 214.944 102.892 214.743 102.796C214.543 102.701 214.361 102.573 214.204 102.416C214.04 102.248 213.91 102.05 213.822 101.832C213.724 101.599 213.676 101.31 213.676 100.964C213.676 100.683 213.734 100.406 213.845 100.148C213.956 99.8902 214.118 99.6578 214.322 99.4648C214.549 99.2534 214.815 99.088 215.105 98.9777C215.413 98.8548 215.769 98.7936 216.17 98.7936C216.618 98.7936 217.033 98.8624 217.414 99.0019C217.772 99.1269 218.101 99.323 218.381 99.5783L218.001 100.301C217.954 100.381 217.905 100.437 217.856 100.474C217.806 100.51 217.743 100.528 217.663 100.528C217.576 100.524 217.492 100.497 217.419 100.448C217.32 100.387 217.218 100.33 217.114 100.276C216.985 100.209 216.851 100.152 216.713 100.104C216.543 100.048 216.364 100.021 216.185 100.024C215.83 100.024 215.562 100.104 215.385 100.262C215.208 100.422 215.119 100.629 215.119 100.887C215.119 101.051 215.167 101.188 215.265 101.294C215.362 101.403 215.491 101.496 215.649 101.574C215.808 101.653 215.989 101.723 216.191 101.784C216.394 101.845 216.599 101.914 216.812 101.988C217.023 102.061 217.232 102.147 217.434 102.246C217.636 102.345 217.815 102.47 217.976 102.62C218.134 102.771 218.262 102.955 218.36 103.172C218.457 103.39 218.506 103.654 218.506 103.966C218.505 104.291 218.443 104.613 218.325 104.916ZM213.499 72.3676L213.486 85.035L226.476 85.0497V93.7033H192.358V72.3676H213.499ZM226.476 121.639H192.358V110.682H226.476V121.639Z" fill="#999999"/>
<path d="M246.058 110.059C245.833 110.059 245.644 109.983 245.494 109.833C245.343 109.657 245.268 109.469 245.268 109.268C245.268 109.193 245.28 109.117 245.305 109.042C245.331 108.967 245.356 108.892 245.381 108.816L253.701 96.6186L245.945 84.948C245.87 84.7974 245.833 84.6468 245.833 84.4962C245.833 84.2955 245.908 84.1198 246.058 83.9692C246.209 83.7935 246.397 83.7056 246.623 83.7056H251.254C251.58 83.7056 251.831 83.7935 252.007 83.9692C252.207 84.1449 252.358 84.308 252.458 84.4586L257.503 91.9504L262.585 84.4586C262.686 84.308 262.836 84.1449 263.037 83.9692C263.238 83.7935 263.502 83.7056 263.828 83.7056H268.233C268.433 83.7056 268.609 83.7935 268.76 83.9692C268.935 84.1198 269.023 84.2955 269.023 84.4962C269.023 84.6719 268.973 84.8225 268.873 84.948L261.117 96.5809L269.475 108.816C269.525 108.892 269.55 108.967 269.55 109.042C269.575 109.117 269.588 109.193 269.588 109.268C269.588 109.469 269.513 109.657 269.362 109.833C269.211 109.983 269.023 110.059 268.797 110.059H264.016C263.69 110.059 263.426 109.971 263.225 109.795C263.05 109.619 262.912 109.469 262.811 109.343L257.315 101.437L251.856 109.343C251.781 109.469 251.643 109.619 251.442 109.795C251.266 109.971 251.003 110.059 250.651 110.059H246.058ZM273.871 110.059C273.595 110.059 273.369 109.971 273.194 109.795C273.018 109.619 272.93 109.393 272.93 109.117V84.6468C272.93 84.3707 273.018 84.1449 273.194 83.9692C273.369 83.7935 273.595 83.7056 273.871 83.7056H278.05C278.326 83.7056 278.552 83.7935 278.728 83.9692C278.904 84.1449 278.991 84.3707 278.991 84.6468V105.014H290.662C290.938 105.014 291.164 105.102 291.34 105.277C291.515 105.453 291.603 105.679 291.603 105.955V109.117C291.603 109.393 291.515 109.619 291.34 109.795C291.164 109.971 290.938 110.059 290.662 110.059H273.871ZM304.55 110.435C302.14 110.435 300.12 110.084 298.488 109.381C296.882 108.678 295.665 107.762 294.837 106.633C294.008 105.503 293.569 104.299 293.519 103.019C293.519 102.818 293.594 102.642 293.745 102.492C293.895 102.316 294.084 102.228 294.31 102.228H298.338C298.664 102.228 298.915 102.303 299.091 102.454C299.266 102.579 299.43 102.743 299.58 102.943C299.756 103.37 300.032 103.784 300.408 104.186C300.81 104.587 301.35 104.926 302.027 105.202C302.705 105.453 303.546 105.579 304.55 105.579C306.181 105.579 307.398 105.315 308.201 104.788C309.03 104.261 309.444 103.546 309.444 102.642C309.444 101.99 309.218 101.463 308.766 101.061C308.339 100.659 307.649 100.295 306.695 99.9692C305.767 99.6429 304.525 99.2915 302.968 98.9151C301.086 98.5135 299.48 97.999 298.15 97.3715C296.845 96.719 295.853 95.8907 295.175 94.8868C294.523 93.8578 294.197 92.5904 294.197 91.0845C294.197 89.5786 294.611 88.2484 295.439 87.0939C296.267 85.9143 297.434 84.9982 298.94 84.3457C300.446 83.668 302.241 83.3292 304.324 83.3292C306.005 83.3292 307.486 83.5551 308.766 84.0068C310.071 84.4586 311.15 85.0484 312.004 85.7762C312.882 86.5041 313.547 87.2821 313.999 88.1104C314.451 88.9386 314.689 89.7417 314.714 90.5198C314.714 90.7206 314.639 90.9088 314.488 91.0845C314.338 91.2351 314.15 91.3104 313.924 91.3104H309.707C309.456 91.3104 309.23 91.2602 309.03 91.1598C308.829 91.0594 308.666 90.8837 308.54 90.6327C308.39 89.9802 307.938 89.4155 307.185 88.9386C306.457 88.4366 305.503 88.1857 304.324 88.1857C303.094 88.1857 302.115 88.4115 301.387 88.8633C300.685 89.3151 300.333 90.0053 300.333 90.9339C300.333 91.5362 300.509 92.0507 300.86 92.4774C301.237 92.879 301.852 93.2429 302.705 93.5692C303.583 93.8704 304.738 94.2092 306.168 94.5857C308.377 95.0374 310.172 95.577 311.552 96.2045C312.932 96.8319 313.949 97.6476 314.601 98.6515C315.254 99.6304 315.58 100.873 315.58 102.379C315.58 104.06 315.103 105.503 314.15 106.708C313.221 107.913 311.928 108.841 310.272 109.494C308.641 110.121 306.733 110.435 304.55 110.435Z" fill="#999999"/>
</svg>
